<?xml version="1.0" encoding="UTF-8" ?>
<!DOCTYPE svg PUBLIC "-//W3C//DTD SVG 1.1//EN" "http://www.w3.org/Graphics/SVG/1.1/DTD/svg11.dtd">
<svg width="781pt" height="782pt" viewBox="0 0 781 782" version="1.1" xmlns="http://www.w3.org/2000/svg">
<g id="#FF8C00">
<path fill="#FF8C00" opacity="1.00" d=" M 364.03 3.86 C 368.46 4.20 372.54 1.97 376.94 1.99 C 391.98 2.00 407.02 2.01 422.06 1.99 C 425.51 1.75 428.49 4.14 431.96 3.85 C 436.13 4.18 440.88 2.70 444.46 5.52 C 449.70 6.65 455.36 4.93 460.54 6.35 C 464.66 9.60 470.46 6.09 474.55 9.42 C 477.78 10.24 481.38 9.54 484.27 11.71 C 488.40 11.33 491.64 14.11 495.65 14.29 C 499.39 14.67 502.72 17.12 506.60 16.37 C 507.52 17.02 508.11 18.42 509.38 18.44 C 514.91 18.48 519.64 21.72 524.92 22.93 C 529.10 23.81 532.53 27.16 536.96 26.87 C 539.94 26.72 541.89 29.41 544.44 30.52 C 551.37 31.86 557.40 35.94 563.61 39.10 C 569.47 40.68 574.78 43.80 579.83 47.10 C 583.37 48.95 587.05 50.51 590.56 52.43 C 598.37 58.07 606.47 63.33 614.80 68.22 C 618.40 71.09 621.93 74.40 626.59 75.40 C 629.62 78.76 632.43 82.84 637.12 83.93 C 640.85 86.79 643.48 90.91 647.45 93.52 C 651.98 96.16 654.75 100.80 659.12 103.67 C 649.82 112.17 641.68 121.92 631.96 129.92 C 628.09 133.43 625.34 137.98 621.06 141.05 C 615.89 147.20 609.82 152.49 604.34 158.35 C 602.74 160.10 600.69 161.30 598.92 162.85 C 590.90 172.15 581.90 180.53 573.29 189.27 C 569.25 193.93 563.82 197.11 560.09 202.07 C 558.38 204.66 555.58 206.19 553.73 208.64 C 552.25 210.31 550.83 212.89 548.19 212.15 C 542.15 209.03 538.66 202.62 532.79 199.29 C 529.83 198.10 528.11 195.21 525.46 193.61 C 520.63 191.81 517.31 187.52 512.70 185.28 C 504.80 181.20 497.50 175.52 488.84 173.24 C 486.87 172.20 485.19 170.37 482.87 170.22 C 479.40 170.07 476.61 167.81 473.51 166.52 C 468.35 165.74 463.52 163.71 458.67 161.91 C 454.90 161.93 451.79 159.33 448.04 159.47 C 444.82 159.71 442.23 157.10 439.02 157.34 C 434.83 157.26 430.38 157.79 426.72 155.34 C 420.84 154.89 414.93 155.57 409.06 155.14 C 407.41 155.15 406.43 153.41 404.83 153.28 C 402.94 153.14 401.05 153.13 399.17 153.28 C 397.57 153.44 396.58 155.15 394.95 155.15 C 387.31 155.44 379.67 155.15 372.03 155.24 C 369.21 155.23 366.81 157.12 364.01 157.22 C 360.46 157.61 356.65 156.66 353.37 158.46 C 351.24 159.54 348.81 159.39 346.54 159.84 C 342.84 160.91 339.13 161.96 335.68 163.70 C 331.61 163.63 328.28 166.22 324.24 166.30 C 320.81 167.38 317.99 170.20 314.21 170.28 C 294.43 177.74 276.33 188.99 259.15 201.21 C 257.40 202.42 256.23 204.25 254.60 205.59 C 252.90 206.51 250.91 207.05 249.57 208.50 C 245.57 213.17 241.32 217.78 236.01 220.98 C 234.36 223.03 232.02 224.47 230.79 226.84 C 227.64 231.93 221.32 234.80 219.70 240.83 C 218.71 241.10 217.73 241.37 216.75 241.65 C 216.11 245.20 212.96 247.21 210.93 249.93 C 206.56 257.18 200.92 263.62 197.58 271.47 C 196.68 274.32 194.09 276.05 192.65 278.58 C 191.11 280.66 190.95 283.38 189.45 285.49 C 187.54 288.54 186.97 292.18 184.96 295.17 C 183.99 299.94 180.85 303.81 179.53 308.45 C 178.43 311.08 177.90 313.93 176.51 316.45 C 175.85 318.83 176.41 321.36 176.00 323.79 C 174.80 326.88 171.84 329.44 172.12 332.95 C 171.96 335.50 172.55 338.18 171.77 340.64 C 170.01 342.78 168.29 345.19 168.05 348.04 C 167.84 351.96 168.29 355.91 167.89 359.83 C 167.05 361.79 165.81 363.67 166.00 365.91 C 165.98 383.30 165.98 400.70 166.00 418.09 C 165.81 420.32 167.05 422.20 167.89 424.17 C 168.29 428.09 167.84 432.03 168.05 435.96 C 168.26 439.13 170.49 441.55 172.06 444.13 C 172.25 446.43 172.10 448.74 172.11 451.05 C 171.70 455.53 176.87 458.41 176.16 462.98 C 175.91 465.58 176.46 468.05 177.83 470.26 C 178.04 475.07 181.12 478.92 182.71 483.30 C 184.42 487.90 187.01 492.06 188.37 496.80 C 191.12 501.65 193.86 506.51 196.86 511.21 C 199.40 515.62 201.08 520.57 204.58 524.36 C 205.84 526.47 206.39 529.02 208.48 530.58 C 211.01 534.27 213.78 537.83 217.15 540.80 C 220.16 543.31 220.96 547.49 224.11 549.89 C 228.18 554.20 232.99 558.20 235.65 563.55 C 236.70 563.71 237.75 563.87 238.81 564.04 C 239.07 565.10 239.34 566.16 239.62 567.23 C 245.35 568.89 247.82 575.37 253.17 577.74 C 258.78 579.81 260.97 587.95 267.79 587.02 C 269.35 590.15 272.40 591.90 275.18 593.82 C 280.60 597.04 285.65 600.91 291.45 603.48 C 296.45 605.89 301.00 609.77 306.72 610.16 C 312.14 612.94 317.96 614.82 323.37 617.65 C 327.44 617.49 330.75 619.97 334.73 620.32 C 338.51 622.36 342.93 622.22 346.77 624.12 C 349.84 625.60 353.81 622.95 356.44 625.45 C 359.43 628.14 363.96 625.60 367.26 627.68 C 370.19 629.50 373.76 628.57 377.01 628.74 C 380.95 628.54 384.76 629.72 388.67 629.88 C 393.29 631.54 398.27 630.59 403.07 630.83 C 405.33 631.15 407.23 629.90 409.20 629.02 C 415.99 628.22 422.88 629.27 429.69 628.56 C 433.01 626.44 436.92 626.84 440.67 626.60 C 445.24 622.09 452.18 626.57 457.29 623.37 C 460.11 621.59 463.67 623.09 466.61 621.72 C 474.82 618.23 483.73 616.91 491.52 612.42 C 499.50 609.97 507.91 607.85 514.50 602.42 C 521.84 598.72 529.08 594.65 535.49 589.47 C 541.11 586.68 545.90 582.66 550.41 578.39 C 555.02 576.45 557.02 571.68 560.76 568.68 C 563.85 566.10 565.90 562.54 568.96 559.93 C 572.52 556.71 574.54 552.29 577.57 548.64 C 581.26 542.16 587.02 537.05 590.24 530.26 C 594.08 522.37 598.76 514.84 601.31 506.41 C 602.35 500.93 605.06 495.97 606.53 490.59 C 609.29 486.88 606.42 481.82 609.11 478.14 C 610.57 475.77 609.70 472.82 609.96 470.20 C 540.96 470.19 471.96 470.34 402.96 470.12 C 401.16 470.07 397.98 470.53 397.97 467.91 C 397.81 419.93 397.98 371.94 397.88 323.96 C 397.99 322.23 397.52 320.09 399.25 318.98 C 402.87 318.26 406.37 319.80 409.96 319.83 C 519.66 319.80 629.35 319.85 739.05 319.81 C 743.11 319.39 747.26 320.30 751.23 319.13 C 756.26 317.96 761.31 319.58 766.09 321.04 C 766.28 324.16 765.66 327.44 766.58 330.45 C 769.82 335.19 767.03 341.27 768.58 346.44 C 771.17 350.12 769.91 354.80 770.18 359.00 C 769.60 365.41 772.00 371.56 772.01 377.95 C 771.99 395.65 772.00 413.35 772.01 431.05 C 772.03 435.44 769.82 439.54 770.17 443.97 C 770.01 447.86 770.98 452.14 768.59 455.57 C 766.98 461.06 769.90 467.48 766.57 472.55 C 765.40 475.60 767.09 479.31 765.20 482.16 C 762.63 485.82 765.74 491.02 762.32 494.36 C 762.35 502.82 758.52 510.58 757.19 518.84 C 756.41 523.09 753.23 526.58 753.17 530.97 C 753.24 533.22 751.50 534.95 751.30 537.15 C 749.66 546.00 744.43 553.76 742.62 562.53 C 739.50 567.45 737.20 572.86 735.58 578.44 C 729.12 591.44 722.54 604.40 714.64 616.60 C 711.16 620.72 709.14 625.76 706.50 630.41 C 704.58 632.19 702.47 633.93 701.54 636.47 C 699.93 641.16 694.84 643.38 692.87 647.86 C 691.85 650.04 690.00 651.65 688.32 653.32 C 683.73 657.47 680.93 663.20 676.28 667.29 C 674.24 669.42 671.49 671.35 671.22 674.54 C 668.05 675.27 665.77 677.58 664.46 680.48 C 656.70 684.80 652.49 693.57 644.42 697.45 C 640.43 701.17 636.69 705.19 631.88 707.89 C 627.72 712.26 622.56 715.36 617.52 718.59 C 611.90 721.46 607.10 725.69 601.43 728.50 C 595.87 732.49 589.33 734.78 583.80 738.83 C 579.39 741.03 575.27 744.36 570.25 744.87 C 560.42 750.23 550.05 754.54 539.72 758.81 C 536.25 758.86 533.43 761.09 530.02 761.28 C 527.58 761.48 525.54 763.07 523.10 763.35 C 520.32 763.61 518.86 766.34 516.55 767.54 C 514.38 767.82 512.20 767.40 510.04 767.48 C 507.55 768.11 505.27 769.43 502.69 769.75 C 500.43 770.16 497.95 769.71 495.89 770.92 C 493.57 772.30 490.58 771.73 488.44 773.53 C 483.94 775.28 478.51 772.66 474.22 775.26 C 472.13 776.57 469.56 775.89 467.26 776.29 C 459.55 780.92 449.69 775.49 441.84 779.93 C 438.08 780.57 434.24 779.81 430.47 780.30 C 430.18 780.72 429.61 781.57 429.32 782.00 L 369.65 782.00 C 369.34 781.59 368.72 780.78 368.41 780.38 C 363.71 779.69 358.91 780.59 354.20 779.98 C 349.45 776.60 343.36 778.76 337.96 778.15 C 335.61 778.59 334.30 775.89 332.01 776.17 C 329.33 775.80 326.20 776.90 323.90 775.12 C 321.30 773.02 317.52 775.07 314.78 773.26 C 312.19 771.35 308.66 772.75 306.06 770.93 C 304.14 769.62 301.67 770.19 299.58 769.40 C 293.38 766.97 286.73 765.97 280.53 763.57 C 278.19 762.83 275.57 763.86 273.32 762.92 C 266.63 758.59 258.84 756.55 251.52 753.59 C 243.60 750.95 236.65 745.99 228.80 743.27 C 226.28 741.48 223.60 740.04 220.50 739.63 C 215.18 736.57 209.98 733.26 204.44 730.60 C 202.02 729.44 199.67 728.11 197.53 726.51 C 194.80 723.13 190.27 722.45 186.61 720.53 C 181.66 716.71 176.65 712.90 171.28 709.75 C 167.74 706.20 163.31 703.77 159.56 700.47 C 154.32 695.99 147.93 692.87 143.56 687.44 C 135.82 681.21 129.54 673.38 121.76 667.23 C 116.10 659.32 107.16 654.11 102.69 645.36 C 101.69 644.08 99.95 644.00 98.55 643.44 C 97.69 639.75 94.87 637.19 92.41 634.53 C 91.16 632.21 89.59 630.09 87.67 628.29 C 85.36 626.08 84.11 623.10 82.48 620.42 C 80.96 618.61 79.04 617.20 77.45 615.47 C 76.82 613.87 76.68 611.92 75.08 610.94 C 72.59 609.16 71.00 606.45 70.39 603.49 C 66.59 597.33 62.55 591.31 59.00 584.99 C 55.29 581.19 54.56 575.67 51.50 571.46 C 49.72 568.77 48.60 565.73 46.97 562.96 C 43.52 558.56 40.93 553.13 40.92 547.44 C 39.64 547.34 38.36 547.24 37.08 547.13 C 36.87 545.09 37.47 542.69 35.91 541.05 C 34.45 539.30 35.32 536.75 34.08 534.90 C 32.44 532.74 33.16 529.96 32.45 527.54 C 29.45 521.88 26.70 516.06 24.81 509.95 C 24.51 507.48 24.79 504.99 24.48 502.53 C 23.20 500.15 21.86 497.81 20.29 495.61 C 19.67 493.07 20.89 490.14 19.14 487.90 C 17.53 485.98 18.08 483.47 18.15 481.19 C 17.23 480.26 15.64 479.53 15.91 477.96 C 15.56 473.85 17.08 469.21 14.06 465.81 C 13.88 462.97 14.06 460.03 11.97 457.82 C 11.36 453.10 12.53 448.15 11.46 443.55 C 8.95 440.55 10.04 436.56 9.80 432.99 C 9.77 429.59 7.88 426.49 8.00 423.07 C 8.00 402.36 8.01 381.64 7.99 360.93 C 7.90 358.40 8.80 356.01 9.46 353.61 C 10.64 349.28 8.41 344.23 11.46 340.45 C 13.05 334.97 10.05 328.49 13.42 323.44 C 14.56 320.46 12.85 316.77 15.11 314.12 C 17.48 310.72 13.74 305.12 18.15 302.82 C 18.08 300.53 17.53 298.02 19.13 296.10 C 20.88 293.85 19.68 290.93 20.29 288.39 C 22.23 285.19 25.23 282.06 24.64 278.03 C 24.03 272.88 27.34 268.62 28.85 263.95 C 29.80 261.06 31.63 258.55 32.69 255.73 C 32.64 252.87 33.29 250.19 34.65 247.69 C 34.40 244.46 37.09 242.23 37.06 239.09 C 37.00 235.88 41.46 234.98 41.62 231.80 C 42.05 227.68 44.53 224.23 46.97 221.05 C 51.74 212.44 55.40 203.21 61.13 195.16 C 64.59 188.99 68.58 183.11 71.75 176.78 C 73.66 173.15 77.50 170.96 79.09 167.13 C 80.31 164.80 82.56 163.20 83.66 160.79 C 85.11 157.72 88.11 155.77 89.65 152.76 C 90.96 150.17 93.26 148.32 95.05 146.09 C 96.20 144.25 97.16 142.23 98.77 140.72 C 99.94 139.90 101.73 139.78 102.34 138.32 C 104.48 133.73 108.92 130.93 112.03 127.08 C 117.93 119.98 125.48 114.46 131.41 107.41 C 136.84 103.52 140.44 97.58 146.23 94.16 C 149.68 92.44 151.83 89.08 154.82 86.76 C 157.09 85.03 159.64 83.65 161.79 81.75 C 173.09 72.02 186.41 65.14 198.52 56.55 C 202.81 54.69 206.37 51.55 210.54 49.46 C 218.83 45.31 226.97 40.79 235.79 37.80 C 238.50 37.18 240.09 34.73 242.33 33.31 C 252.30 31.08 261.49 26.27 271.13 22.99 C 279.69 20.76 288.12 18.02 296.63 15.49 C 299.35 13.97 302.58 14.36 305.41 13.39 C 307.85 11.44 311.28 12.54 313.80 10.76 C 316.33 9.03 319.73 10.71 322.30 9.36 C 325.30 6.38 329.90 8.85 333.45 7.44 C 338.80 3.95 345.62 7.10 351.44 5.43 C 355.16 2.89 359.82 4.08 364.03 3.86 Z" />
</g>
</svg>
