<?xml version="1.0" encoding="UTF-8" ?>
<!DOCTYPE svg PUBLIC "-//W3C//DTD SVG 1.1//EN" "http://www.w3.org/Graphics/SVG/1.1/DTD/svg11.dtd">
<svg width="781pt" height="782pt" viewBox="0 0 781 782" version="1.1" xmlns="http://www.w3.org/2000/svg">
<g id="#FFA500">
<path fill="#FFA500" opacity="1.00" d=" M 367.03 3.79 C 370.36 3.24 373.53 1.93 376.97 1.96 C 392.93 2.18 408.91 1.73 424.85 2.18 C 430.41 4.96 436.72 3.30 442.68 3.96 C 442.97 4.38 443.55 5.22 443.84 5.63 C 449.43 6.11 455.07 5.63 460.68 5.88 C 461.11 6.36 461.99 7.32 462.43 7.81 C 465.87 7.81 469.31 7.87 472.75 7.85 C 473.17 8.35 474.00 9.37 474.41 9.88 C 476.84 9.72 479.28 10.01 481.72 9.93 C 482.14 10.41 483.00 11.37 483.43 11.86 C 485.51 11.89 487.60 11.94 489.70 11.97 C 490.13 12.45 490.99 13.39 491.42 13.87 C 494.48 14.12 497.68 14.12 500.47 15.58 C 503.01 17.53 507.44 14.66 508.54 18.61 C 510.82 18.78 513.42 18.03 515.38 19.57 C 517.45 21.31 520.81 20.08 522.31 22.72 C 523.60 22.71 524.90 22.69 526.21 22.67 C 526.92 23.38 527.68 24.05 528.50 24.66 C 529.57 24.73 530.64 24.82 531.72 24.94 C 532.76 28.29 537.07 26.29 539.68 26.90 C 539.84 28.61 541.17 28.97 542.63 29.10 C 543.67 31.56 546.59 30.77 548.70 30.95 C 549.06 31.40 549.78 32.30 550.14 32.75 C 550.77 32.84 552.02 33.02 552.64 33.11 C 553.83 34.28 555.23 35.19 556.90 35.47 C 559.33 35.91 560.88 38.03 562.99 39.07 C 565.26 39.63 567.79 39.58 569.42 41.55 C 570.05 41.61 571.31 41.73 571.94 41.78 C 572.28 42.24 572.95 43.16 573.28 43.62 C 575.99 43.92 578.15 45.64 579.81 47.69 C 580.74 47.75 581.68 47.81 582.63 47.86 C 583.05 48.34 583.91 49.30 584.33 49.78 C 584.92 49.80 586.09 49.85 586.67 49.88 C 587.09 50.36 587.91 51.33 588.32 51.81 C 588.90 51.84 590.07 51.91 590.65 51.94 C 591.89 53.23 593.14 54.50 594.38 55.79 C 594.98 55.87 596.19 56.02 596.79 56.10 C 600.70 60.90 607.04 62.39 611.44 66.65 C 611.96 66.74 613.00 66.91 613.52 67.00 C 616.71 69.86 619.89 72.48 623.58 74.74 C 624.60 74.84 625.64 74.92 626.68 74.99 C 628.61 78.37 631.66 80.80 634.41 83.49 C 635.04 83.42 636.30 83.30 636.94 83.23 C 641.39 88.06 645.74 93.28 651.68 96.27 C 652.35 97.30 652.92 98.40 653.42 99.54 C 654.34 99.95 655.26 100.36 656.19 100.77 C 656.82 102.06 657.70 103.15 659.30 103.21 C 651.66 111.20 643.55 118.79 635.98 126.87 C 633.77 127.94 631.78 129.40 630.73 131.67 C 628.14 132.73 627.09 135.42 625.40 137.43 C 623.96 138.67 622.43 139.82 620.94 141.00 C 615.58 147.90 608.68 153.37 602.88 159.88 C 598.69 162.28 595.98 166.25 592.86 169.74 C 586.54 175.71 580.68 182.25 574.27 188.19 C 571.49 190.81 569.41 194.51 565.54 195.65 C 565.05 196.73 564.35 197.69 563.71 198.68 C 560.32 199.89 559.80 204.07 556.78 205.62 C 553.27 207.40 552.35 213.50 547.44 212.08 C 545.89 210.80 544.46 209.39 542.83 208.22 C 540.95 207.04 540.28 204.69 538.29 203.64 C 535.82 202.26 534.55 198.87 531.34 198.93 C 529.32 197.12 527.51 195.08 525.54 193.22 C 524.87 193.20 523.55 193.17 522.88 193.15 C 521.82 191.76 520.38 190.71 519.43 189.23 C 518.92 189.15 517.90 189.00 517.39 188.92 C 515.83 186.58 513.20 184.93 510.42 184.68 C 509.84 183.97 509.29 183.26 508.76 182.53 C 505.86 182.24 503.99 179.85 501.38 178.88 C 499.98 178.30 498.77 177.37 497.60 176.43 C 497.04 176.35 495.92 176.19 495.36 176.12 C 494.92 175.64 494.04 174.69 493.60 174.22 C 492.21 174.11 490.81 174.17 489.43 174.11 C 488.22 172.28 486.02 171.71 484.48 170.29 C 482.40 169.86 478.91 171.23 478.56 168.21 C 477.47 168.16 476.39 168.11 475.32 168.06 C 474.93 167.59 474.17 166.64 473.79 166.17 C 471.91 166.17 470.04 165.99 468.17 166.00 C 467.87 165.53 467.27 164.60 466.97 164.13 C 465.38 164.08 463.79 164.07 462.22 163.93 C 461.49 163.22 460.75 162.52 460.02 161.83 C 456.98 161.81 453.83 161.67 451.37 159.68 C 448.24 159.39 444.91 159.80 442.21 157.79 C 438.17 156.77 433.87 157.58 429.74 157.21 C 429.04 156.52 428.32 155.88 427.55 155.29 C 420.80 155.02 414.02 155.64 407.29 155.02 C 407.03 154.58 406.51 153.69 406.25 153.25 C 403.41 153.22 400.57 153.26 397.74 153.25 C 397.48 153.70 396.95 154.59 396.69 155.04 C 387.70 155.76 378.63 154.81 369.65 155.48 C 365.82 157.90 361.22 157.26 356.94 157.36 C 354.37 157.24 352.53 159.73 349.91 159.45 C 346.09 158.97 343.03 161.84 339.28 161.70 C 336.93 164.10 333.56 164.31 330.38 164.15 C 329.98 164.62 329.16 165.56 328.75 166.02 C 326.83 166.08 324.90 166.12 322.98 166.17 C 322.67 166.64 322.06 167.57 321.76 168.03 C 321.07 168.08 319.69 168.17 319.00 168.22 C 318.69 168.70 318.08 169.66 317.78 170.13 C 315.99 170.11 314.21 170.11 312.43 170.17 C 312.33 173.96 306.99 170.40 306.65 174.12 C 305.55 174.16 304.45 174.20 303.36 174.24 C 302.92 174.70 302.04 175.63 301.60 176.10 C 301.01 176.14 299.83 176.22 299.23 176.26 C 298.83 176.72 298.02 177.62 297.61 178.08 C 297.05 178.16 295.93 178.32 295.37 178.40 C 291.24 181.93 285.43 182.76 281.67 186.84 C 281.13 186.96 280.06 187.20 279.53 187.32 C 274.95 190.62 270.29 193.59 265.62 196.75 C 262.26 199.28 258.16 201.05 255.75 204.65 C 254.72 206.30 252.53 206.31 250.97 207.17 C 248.90 208.72 247.81 211.18 245.79 212.77 C 242.51 215.51 240.04 219.64 235.64 220.66 C 235.24 224.19 230.42 224.16 230.58 227.91 C 226.77 231.17 223.41 234.57 220.32 238.51 C 220.23 239.12 220.04 240.32 219.95 240.93 C 217.60 240.74 215.69 242.13 215.92 244.62 C 213.56 247.01 210.81 249.18 209.48 252.37 C 208.67 254.63 206.13 255.77 205.54 258.14 C 204.55 261.02 201.07 262.37 200.99 265.67 C 200.57 266.10 199.73 266.94 199.31 267.36 C 199.28 268.92 199.04 270.38 197.19 270.57 C 197.20 271.69 197.21 272.81 197.20 273.94 C 196.22 274.39 195.30 274.93 194.43 275.57 C 193.78 277.40 192.41 278.79 191.32 280.36 C 191.17 281.43 191.03 282.51 190.89 283.59 C 188.99 285.53 188.30 288.25 186.63 290.36 C 186.74 290.98 186.98 292.23 187.09 292.86 C 186.20 293.41 185.34 294.01 184.51 294.64 C 184.33 296.83 184.86 299.65 182.42 300.79 C 182.32 302.43 182.24 304.26 180.27 304.65 C 180.53 306.88 180.11 309.00 178.32 310.50 C 178.10 312.46 178.91 315.19 176.26 315.69 C 176.16 318.74 176.34 321.81 176.08 324.86 C 175.59 325.04 174.62 325.38 174.13 325.55 C 174.14 326.63 174.15 327.71 174.17 328.80 C 173.64 329.07 172.59 329.63 172.06 329.90 C 172.15 333.55 172.24 337.19 172.11 340.84 C 165.74 345.41 168.78 354.09 168.02 360.67 C 167.57 361.10 166.68 361.97 166.24 362.41 C 165.85 367.60 165.96 372.81 165.97 378.02 C 166.23 392.55 165.60 407.10 166.25 421.62 C 166.69 422.05 167.57 422.90 168.01 423.32 C 168.72 429.99 165.86 438.52 172.05 443.33 C 172.27 446.92 172.14 450.51 172.05 454.10 C 172.57 454.37 173.61 454.89 174.13 455.16 C 174.13 456.22 174.14 457.29 174.15 458.36 C 174.63 458.56 175.60 458.95 176.08 459.15 C 176.34 462.18 176.15 465.24 176.27 468.28 C 179.21 469.01 178.02 472.41 178.18 474.63 C 178.68 475.05 179.69 475.87 180.19 476.28 C 180.14 477.33 180.16 478.38 180.26 479.44 C 180.66 479.64 181.47 480.06 181.87 480.26 C 182.04 483.59 184.92 485.98 184.56 489.39 C 185.31 489.97 186.07 490.53 186.85 491.09 C 187.25 493.46 187.39 496.03 189.04 497.96 C 190.44 499.72 190.51 502.79 193.08 503.31 C 193.06 504.38 193.04 505.45 193.02 506.53 C 194.89 506.59 195.31 507.95 195.34 509.57 C 198.22 509.88 196.06 513.91 199.06 514.25 C 199.11 514.84 199.20 516.04 199.24 516.63 C 199.68 517.06 200.56 517.91 201.01 518.34 C 201.29 520.94 202.89 523.00 205.07 524.35 C 205.67 526.70 206.04 529.57 208.77 530.35 C 211.20 535.64 215.75 539.54 219.95 543.42 C 220.05 543.94 220.24 544.98 220.34 545.49 C 221.81 548.08 224.27 549.81 226.17 551.91 C 229.31 554.73 231.61 558.45 234.89 561.22 C 235.02 561.84 235.28 563.09 235.41 563.71 C 236.62 563.75 237.82 563.80 239.03 563.85 C 238.60 566.29 240.03 568.26 242.60 568.07 C 244.09 570.37 246.22 572.01 248.24 573.70 C 249.77 575.95 251.96 577.86 254.75 578.21 C 257.78 580.96 260.49 584.06 263.55 586.78 C 264.99 586.75 266.44 586.77 267.90 586.75 C 268.85 590.91 273.59 591.47 275.64 594.71 C 276.15 594.79 277.18 594.94 277.69 595.02 C 279.31 596.50 281.13 597.68 283.10 598.65 C 285.75 601.46 289.63 602.25 292.93 604.01 C 293.28 604.39 293.97 605.14 294.32 605.52 C 295.99 605.57 297.40 606.25 298.46 607.57 C 299.00 607.67 300.09 607.86 300.63 607.96 C 301.03 608.41 301.83 609.30 302.23 609.75 C 304.48 610.03 307.94 608.71 308.70 611.72 C 309.68 611.75 310.67 611.80 311.66 611.84 C 312.08 612.33 312.94 613.32 313.36 613.81 C 314.46 613.85 315.56 613.87 316.66 613.88 C 317.07 614.35 317.88 615.29 318.29 615.76 C 320.03 615.85 322.38 615.43 322.44 617.88 C 324.55 617.88 326.66 617.96 328.78 617.96 C 329.09 618.43 329.72 619.37 330.04 619.84 C 332.96 619.71 336.07 619.90 338.21 622.16 C 340.89 622.27 343.67 622.33 346.02 623.82 C 349.53 626.31 355.25 621.81 357.43 626.62 C 360.29 626.84 363.19 626.51 366.04 626.95 C 371.38 630.95 378.56 627.07 384.44 629.55 C 385.90 630.32 387.48 629.88 388.75 628.97 C 389.01 629.35 389.52 630.13 389.78 630.52 C 394.50 631.14 399.30 630.61 404.06 630.81 C 405.96 631.11 407.40 629.79 408.93 628.93 C 413.60 628.46 418.32 628.84 423.01 628.75 C 426.34 628.61 430.32 629.58 432.87 626.80 C 435.77 626.78 438.67 626.71 441.57 626.69 C 441.91 626.13 442.58 624.99 442.92 624.42 C 447.15 624.43 451.40 624.75 455.63 624.43 C 456.40 623.90 457.14 623.33 457.85 622.73 C 461.05 622.01 464.63 623.15 467.55 621.31 C 469.26 620.19 471.25 619.84 473.28 619.92 C 473.88 619.26 474.49 618.60 475.10 617.94 C 476.87 617.89 478.64 617.92 480.42 617.84 C 480.73 614.92 483.97 616.06 485.99 615.82 C 486.32 615.36 486.96 614.45 487.28 613.99 C 487.88 613.94 489.07 613.84 489.67 613.79 C 490.09 613.30 490.94 612.32 491.36 611.83 C 492.73 611.86 494.11 611.77 495.50 611.72 C 497.10 609.53 499.72 609.56 502.18 609.77 C 502.72 609.11 503.25 608.44 503.77 607.77 C 504.50 607.76 505.98 607.75 506.72 607.74 C 507.02 607.23 507.63 606.20 507.93 605.69 C 508.58 605.67 509.86 605.64 510.51 605.62 C 512.10 604.77 513.12 603.28 514.43 602.10 C 517.74 601.15 520.91 599.65 523.30 597.10 C 523.84 596.99 524.93 596.78 525.47 596.67 C 528.23 594.30 531.79 593.03 534.18 590.20 C 535.04 589.07 536.46 588.83 537.76 588.54 C 540.91 585.64 545.14 584.11 547.80 580.61 C 549.98 577.73 554.07 577.23 555.88 574.02 C 557.52 571.32 559.94 569.28 562.40 567.36 C 564.63 564.94 566.23 561.95 568.93 559.96 C 573.00 556.51 574.68 551.25 578.58 547.72 C 578.22 545.37 580.39 544.27 581.86 542.96 C 584.95 537.53 589.83 533.19 591.64 527.03 C 593.69 524.47 594.57 521.28 596.26 518.52 C 597.46 515.11 600.46 512.26 599.92 508.37 C 600.38 507.94 601.30 507.06 601.76 506.63 C 602.11 504.50 600.71 500.86 603.83 500.58 C 603.54 498.29 603.72 495.97 605.74 494.51 C 605.81 493.07 605.88 491.63 605.84 490.21 C 606.34 489.98 607.34 489.51 607.84 489.28 C 607.77 485.96 607.86 482.65 607.94 479.34 C 608.42 478.91 609.38 478.07 609.86 477.65 C 609.96 475.14 609.99 472.66 610.03 470.17 C 540.69 470.25 471.35 470.31 402.00 470.13 C 399.96 470.56 397.34 469.56 397.90 467.06 C 397.90 418.70 397.87 370.35 397.91 321.99 C 397.39 318.50 401.60 318.44 403.98 318.88 C 408.82 320.49 413.93 319.62 418.94 319.82 C 526.32 319.84 633.70 319.78 741.08 319.85 C 743.40 319.27 745.73 319.54 748.04 319.97 C 753.90 317.54 760.40 319.05 766.13 321.14 C 766.06 324.30 766.24 327.45 766.16 330.60 C 766.64 331.03 767.58 331.89 768.06 332.31 C 768.30 337.03 768.08 341.76 768.24 346.48 C 769.04 347.52 770.37 348.42 770.18 349.94 C 770.64 356.27 769.32 362.78 771.08 368.97 C 771.61 372.95 772.22 376.95 772.00 380.98 C 771.99 396.32 772.00 411.67 772.00 427.01 C 772.11 430.93 772.07 434.97 770.60 438.66 C 769.70 443.08 770.50 447.62 770.16 452.09 C 770.32 453.56 768.99 454.44 768.26 455.51 C 768.07 460.54 768.28 465.57 768.08 470.60 C 767.60 471.05 766.64 471.97 766.16 472.42 C 766.22 475.50 766.12 478.58 766.05 481.66 C 765.63 481.91 764.79 482.42 764.37 482.68 C 763.77 485.97 764.37 489.36 763.97 492.68 C 763.52 492.88 762.61 493.28 762.16 493.48 C 762.10 496.51 762.14 499.56 761.63 502.57 C 760.53 504.19 760.21 506.10 759.67 507.96 C 760.08 511.19 757.41 513.73 757.49 516.94 C 757.69 519.04 756.84 520.94 755.55 522.55 C 755.82 524.58 754.92 526.27 753.32 527.48 C 753.29 529.52 753.15 531.57 753.15 533.62 C 752.66 534.06 751.69 534.95 751.21 535.39 C 751.33 537.92 751.59 540.73 749.35 542.48 C 749.03 544.38 749.83 547.17 747.21 547.57 C 747.01 549.45 747.93 552.24 745.26 552.56 C 744.99 554.43 745.80 557.17 743.22 557.57 C 743.09 559.26 743.08 560.96 742.99 562.67 C 740.21 565.24 738.91 569.04 737.94 572.61 C 737.54 573.06 736.75 573.96 736.35 574.41 C 736.24 576.38 736.82 579.00 734.39 579.75 C 734.25 580.70 734.15 581.66 734.07 582.63 C 731.25 583.27 733.14 587.10 730.29 587.57 C 730.20 589.29 730.47 591.39 728.18 591.56 C 728.17 592.55 728.16 593.54 728.13 594.54 C 726.83 596.14 725.32 597.63 724.42 599.51 C 724.18 600.87 723.77 602.15 722.29 602.57 C 722.09 604.18 722.38 606.24 720.26 606.50 C 720.83 609.67 716.97 610.58 716.87 613.59 C 714.09 616.97 711.64 620.60 709.50 624.45 C 709.36 625.97 708.91 627.33 707.22 627.66 C 707.16 628.65 707.12 629.66 707.09 630.68 C 703.68 631.84 701.56 635.27 700.80 638.65 C 697.93 642.09 693.81 644.65 692.30 649.06 C 689.79 652.58 685.90 654.92 683.63 658.66 C 680.28 663.76 675.62 667.67 671.64 672.23 C 671.57 672.97 671.45 674.45 671.38 675.20 C 670.63 675.26 669.11 675.38 668.36 675.45 C 667.34 676.41 666.34 677.39 665.32 678.35 C 665.24 679.03 665.08 680.38 665.00 681.06 C 664.34 681.12 663.03 681.25 662.38 681.31 C 657.44 686.19 652.61 691.17 647.62 695.99 C 642.14 697.24 639.84 703.46 634.96 705.90 C 631.54 707.36 629.34 710.47 626.65 712.89 C 625.38 713.19 624.25 713.76 623.61 714.96 C 623.11 715.05 622.10 715.22 621.60 715.30 C 620.68 716.96 618.86 717.70 617.54 718.97 C 617.02 719.08 615.97 719.29 615.45 719.40 C 613.68 720.69 612.01 722.13 610.10 723.20 C 606.95 724.86 604.48 727.78 600.83 728.43 C 599.46 729.66 598.13 730.92 596.63 731.99 C 596.05 732.05 594.90 732.17 594.33 732.23 C 593.99 732.69 593.31 733.62 592.98 734.08 C 592.37 734.14 591.15 734.28 590.55 734.34 C 588.01 736.53 584.83 737.66 582.47 740.06 C 581.94 740.12 580.87 740.26 580.34 740.33 C 579.55 741.03 578.79 741.76 578.07 742.54 C 577.47 742.53 576.27 742.50 575.68 742.49 C 575.26 743.06 574.43 744.20 574.02 744.77 C 572.71 744.67 571.19 744.01 570.00 744.82 C 567.02 746.69 564.05 748.98 560.41 749.25 C 560.07 749.70 559.39 750.59 559.05 751.04 C 558.39 751.07 557.05 751.14 556.38 751.17 C 555.97 751.65 555.16 752.60 554.75 753.07 C 553.64 753.03 552.54 753.08 551.46 753.21 C 551.29 755.98 548.36 754.96 546.48 755.23 C 546.19 758.83 541.13 755.53 540.68 759.10 C 538.81 759.16 536.95 759.19 535.10 759.28 C 533.18 763.07 527.96 759.44 525.91 763.15 C 524.26 763.36 522.43 763.03 520.95 763.91 C 519.54 765.03 518.46 766.58 516.87 767.47 C 513.77 768.24 510.29 766.46 507.44 768.36 C 504.05 770.14 500.13 770.00 496.41 770.17 C 495.99 770.63 495.16 771.55 494.75 772.02 C 492.98 772.06 491.22 772.04 489.47 772.19 C 489.28 772.62 488.89 773.49 488.70 773.92 C 484.31 774.36 479.88 773.97 475.48 774.23 C 473.38 777.22 469.46 775.94 466.39 776.15 C 465.97 776.64 465.13 777.63 464.71 778.12 C 458.48 778.33 452.25 778.01 446.02 778.27 C 444.48 778.26 443.36 779.45 442.12 780.19 C 438.19 780.29 434.26 780.06 430.33 780.21 C 430.16 780.66 429.83 781.55 429.67 782.00 L 368.97 782.00 C 368.93 781.54 368.84 780.62 368.79 780.16 C 364.17 780.16 359.56 780.25 354.95 780.19 C 353.45 780.50 352.72 779.20 351.95 778.24 C 346.40 777.99 340.83 778.47 335.29 778.00 C 335.06 777.55 334.58 776.66 334.35 776.21 C 330.99 776.08 327.61 776.34 324.27 775.95 C 324.08 775.50 323.70 774.60 323.51 774.15 C 320.77 774.21 318.03 774.05 315.29 774.05 C 314.87 773.58 314.03 772.64 313.61 772.17 C 311.44 772.14 309.27 772.04 307.10 772.03 C 306.44 771.31 305.78 770.59 305.13 769.88 C 302.78 770.04 300.28 770.17 298.18 768.90 C 295.20 767.01 291.25 768.05 288.54 765.63 C 285.80 765.62 283.14 765.02 280.85 763.48 C 278.18 763.08 275.46 763.36 272.78 763.42 C 272.51 762.88 271.97 761.82 271.70 761.28 C 271.12 761.24 269.97 761.15 269.40 761.11 C 268.95 760.65 268.06 759.73 267.62 759.27 C 266.54 759.22 265.47 759.18 264.40 759.15 C 263.96 758.70 263.07 757.80 262.63 757.35 C 260.98 757.28 259.32 757.08 258.06 755.91 C 256.32 754.34 252.80 756.33 252.45 753.21 C 251.07 753.15 249.69 753.07 248.32 753.13 C 247.90 752.65 247.07 751.69 246.66 751.21 C 246.06 751.14 244.86 751.00 244.25 750.93 C 243.92 750.51 243.26 749.67 242.93 749.25 C 240.99 749.20 239.05 748.86 238.09 747.00 C 236.06 747.33 234.77 745.77 233.46 744.53 C 229.76 744.94 227.17 742.20 224.41 740.31 C 219.88 741.26 217.52 736.52 213.41 735.84 C 212.59 734.80 211.48 734.17 210.21 733.89 C 209.80 733.47 208.98 732.62 208.58 732.20 C 207.96 732.17 206.73 732.12 206.11 732.09 C 205.75 731.62 205.02 730.70 204.66 730.24 C 204.07 730.15 202.88 729.99 202.28 729.91 C 200.94 728.41 199.22 727.45 197.31 726.89 C 196.55 724.16 193.78 723.43 191.35 722.93 C 190.94 722.53 190.12 721.72 189.71 721.31 C 189.03 721.33 187.65 721.36 186.97 721.37 C 185.62 720.18 184.70 718.60 183.37 717.41 C 182.88 717.31 181.89 717.09 181.40 716.99 C 180.86 715.73 179.75 715.16 178.49 714.89 C 177.06 713.78 176.17 712.09 174.51 711.26 C 173.97 711.21 172.88 711.12 172.33 711.07 C 168.49 706.29 162.84 703.65 158.43 699.58 C 155.65 696.85 151.63 695.55 149.37 692.31 C 148.87 692.23 147.86 692.08 147.36 692.00 C 146.56 690.10 144.66 689.08 143.71 687.30 C 140.72 685.73 138.94 682.79 136.24 680.84 C 131.41 676.63 127.58 671.27 122.11 667.83 C 117.74 661.64 111.76 656.86 106.59 651.36 C 104.23 649.52 103.98 646.23 101.76 644.29 C 100.12 644.20 98.18 643.89 97.88 641.94 C 97.09 638.78 94.65 636.48 92.02 634.74 C 91.37 630.19 86.37 628.33 84.62 624.32 C 83.21 620.61 80.33 617.69 77.02 615.60 C 76.94 614.50 76.88 613.40 76.83 612.32 C 75.79 611.30 74.53 610.57 73.37 609.72 C 72.60 608.60 71.88 607.44 70.96 606.44 C 70.90 605.42 70.79 604.42 70.65 603.42 C 68.76 600.87 66.85 598.31 65.42 595.44 C 61.77 591.15 60.45 585.24 55.98 581.58 C 55.92 580.52 55.87 579.47 55.81 578.42 C 53.58 578.29 53.85 576.18 53.66 574.53 C 52.64 572.70 51.06 571.27 49.94 569.52 C 49.86 568.97 49.71 567.86 49.64 567.31 C 49.20 566.90 48.33 566.07 47.89 565.65 C 47.82 565.07 47.69 563.90 47.62 563.32 C 46.40 562.07 45.20 560.81 44.00 559.56 C 43.87 558.54 43.72 557.53 43.56 556.53 C 41.09 554.14 40.99 550.55 41.10 547.37 C 39.69 547.27 38.28 547.23 36.86 547.24 C 36.89 545.33 37.01 543.43 36.96 541.53 C 33.55 541.49 35.18 537.59 34.91 535.41 C 34.39 535.00 33.35 534.18 32.83 533.77 C 32.85 531.64 32.82 529.52 32.85 527.39 C 32.36 526.97 31.36 526.13 30.87 525.72 C 30.83 525.14 30.75 523.99 30.72 523.41 C 29.06 522.23 28.51 520.43 28.73 518.47 C 25.44 517.57 27.61 512.91 24.77 511.13 C 24.45 508.24 24.72 505.33 24.71 502.44 C 23.53 501.25 22.02 500.10 22.57 498.22 C 21.71 497.41 20.84 496.62 19.96 495.85 C 20.12 492.66 21.10 488.74 17.99 486.63 C 17.78 484.23 19.49 480.23 15.95 479.70 C 15.85 475.72 15.90 471.74 15.93 467.77 C 15.41 467.54 14.36 467.10 13.84 466.87 C 13.87 464.58 13.86 462.29 13.96 460.01 C 13.42 459.71 12.35 459.10 11.81 458.80 C 11.84 453.66 11.78 448.53 11.88 443.39 C 11.36 442.97 10.31 442.14 9.79 441.72 C 9.48 436.87 10.72 431.70 8.44 427.18 C 7.87 424.16 7.94 421.07 8.01 418.02 C 7.97 399.01 8.04 379.99 7.97 360.98 C 8.17 359.33 7.97 357.58 8.73 356.05 C 10.66 351.68 9.45 346.82 9.81 342.22 C 10.33 341.82 11.36 341.02 11.88 340.62 C 11.80 335.52 11.81 330.42 11.85 325.31 C 12.35 324.89 13.35 324.03 13.85 323.60 C 13.78 320.81 13.90 318.01 13.84 315.22 C 14.36 314.82 15.41 314.02 15.93 313.62 C 15.86 310.50 15.91 307.38 15.95 304.26 C 19.50 303.82 17.76 299.72 17.99 297.35 C 21.12 295.26 20.10 291.32 19.96 288.15 C 20.84 287.36 21.71 286.57 22.58 285.78 C 22.03 283.89 23.53 282.73 24.71 281.56 C 24.72 278.65 24.45 275.74 24.78 272.84 C 26.22 271.37 26.95 269.44 26.97 267.40 C 27.40 266.96 28.27 266.07 28.71 265.63 C 28.79 264.53 28.84 263.43 28.87 262.34 C 29.34 261.92 30.28 261.09 30.76 260.67 C 30.79 260.07 30.84 258.88 30.87 258.28 C 31.37 257.86 32.38 257.02 32.88 256.60 C 32.80 254.51 32.86 252.42 32.82 250.33 C 33.33 249.90 34.36 249.04 34.87 248.60 C 34.90 246.79 34.81 244.98 34.88 243.18 C 38.18 243.13 36.72 239.31 36.91 237.21 C 39.19 236.01 41.86 233.86 41.71 231.05 C 41.27 228.44 44.07 227.03 44.07 224.47 C 45.89 222.78 47.64 221.02 48.11 218.47 C 49.07 217.23 50.12 215.94 50.00 214.27 C 50.40 213.87 51.20 213.06 51.60 212.66 C 51.75 211.17 51.97 209.67 53.75 209.44 C 53.90 208.39 53.95 207.33 53.91 206.28 C 54.38 205.87 55.31 205.07 55.78 204.66 C 55.86 204.09 56.02 202.95 56.10 202.39 C 60.15 198.04 62.20 192.33 65.78 187.67 C 66.41 186.05 66.77 184.05 68.67 183.46 C 68.75 182.94 68.91 181.89 68.99 181.37 C 69.41 180.94 70.24 180.08 70.65 179.66 C 70.75 179.12 70.96 178.04 71.06 177.50 C 73.26 174.25 75.95 171.45 78.76 168.73 C 78.81 168.12 78.93 166.92 78.98 166.31 C 80.50 164.81 82.51 163.60 83.31 161.53 C 84.80 157.21 89.50 155.14 90.74 150.64 C 92.41 148.96 94.06 147.24 95.82 145.66 C 95.88 145.10 96.00 143.96 96.05 143.40 C 97.47 142.65 98.67 141.44 99.02 139.84 C 99.75 139.84 101.19 139.85 101.91 139.86 C 103.36 133.46 110.24 130.67 113.34 125.24 C 116.27 123.11 118.24 120.21 120.86 117.97 C 123.75 114.65 128.07 112.34 130.35 108.27 C 134.07 105.41 137.48 102.15 140.59 98.59 C 141.92 96.73 144.55 96.25 145.40 94.00 C 145.96 93.94 147.07 93.83 147.63 93.78 C 151.02 90.45 154.02 86.52 158.41 84.45 C 160.93 82.65 163.20 80.57 165.48 78.47 C 168.19 77.24 170.43 75.19 172.31 72.91 C 172.95 72.88 174.24 72.80 174.88 72.76 C 176.14 71.55 177.18 70.12 178.45 68.91 C 178.97 68.85 180.00 68.72 180.52 68.66 C 182.25 67.79 183.32 66.07 184.96 65.07 C 185.98 64.25 187.41 64.24 188.42 63.43 C 190.79 60.98 194.50 60.43 196.65 57.67 C 198.03 55.57 201.44 56.71 202.30 54.12 C 203.79 54.04 205.13 53.70 205.33 51.97 C 205.90 51.93 207.05 51.84 207.63 51.80 C 207.65 48.66 211.88 50.99 212.29 47.98 C 213.94 47.90 215.87 47.98 216.36 45.97 C 218.02 45.89 219.92 45.95 220.36 43.91 C 220.91 43.87 222.01 43.77 222.56 43.72 C 223.81 42.12 225.56 41.38 227.57 41.46 C 229.89 39.24 233.31 39.11 236.11 37.69 C 238.84 37.18 240.27 34.64 242.24 32.96 C 243.71 32.90 245.18 32.87 246.65 32.85 C 247.04 32.36 247.82 31.37 248.20 30.88 C 249.67 30.91 251.14 30.84 252.61 30.83 C 253.02 30.35 253.84 29.38 254.25 28.89 C 255.33 28.84 256.42 28.78 257.52 28.71 C 258.72 27.03 260.58 26.60 262.56 26.69 C 264.02 23.66 268.35 26.14 269.38 22.88 C 271.08 22.76 272.79 22.77 274.49 22.67 C 275.30 22.07 276.06 21.41 276.78 20.70 C 278.35 20.72 279.92 20.69 281.50 20.65 C 283.86 17.53 288.27 19.35 291.15 16.94 C 296.06 16.65 300.08 12.92 305.18 14.06 C 305.75 13.35 306.36 12.66 306.99 12.00 C 309.00 11.90 311.01 11.87 313.02 11.82 C 313.31 11.36 313.88 10.44 314.16 9.98 C 316.96 9.93 319.76 9.81 322.57 9.89 C 322.75 9.42 323.12 8.46 323.31 7.99 C 326.69 7.63 330.10 7.96 333.50 7.79 C 334.51 6.92 335.38 5.56 336.94 5.82 C 341.61 5.68 346.29 6.00 350.96 5.75 C 352.47 5.54 353.29 3.71 354.92 3.87 C 358.95 3.64 362.99 3.96 367.03 3.79 Z" />
</g>
</svg>
